<?xml version="1.0" standalone="no"?>
<!DOCTYPE svg PUBLIC "-//W3C//DTD SVG 20010904//EN"
 "http://www.w3.org/TR/2001/REC-SVG-20010904/DTD/svg10.dtd">
<svg version="1.0" xmlns="http://www.w3.org/2000/svg"
 width="365.000000pt" height="365.000000pt" viewBox="0 0 365.000000 365.000000"
 preserveAspectRatio="xMidYMid meet">
<metadata>
Created by potrace 1.14, written by Peter Selinger 2001-2017
</metadata>
<g transform="translate(0.000000,365.000000) scale(0.100000,-0.100000)"
fill="#000000" stroke="none">
<path d="M960 3640 c0 -3 -20 -26 -43 -51 -40 -44 -80 -88 -266 -299 -46 -52
-89 -99 -95 -105 -6 -5 -65 -71 -130 -145 -66 -74 -124 -139 -130 -145 -12
-11 -139 -154 -172 -193 -18 -22 -19 -58 -19 -1357 0 -1180 2 -1335 15 -1336
90 -5 2909 -3 2920 2 13 6 15 35 15 187 l-1 180 36 -14 c19 -8 49 -28 65 -44
l31 -30 94 95 c52 52 90 95 84 95 -6 0 -30 17 -54 37 -111 96 -103 239 18 310
40 24 58 28 125 28 l77 0 0 137 0 138 -57 -2 c-67 -1 -115 17 -157 58 -80 80
-71 197 21 274 l40 33 -92 94 c-50 51 -95 93 -99 93 -3 0 -23 -11 -44 -25 -20
-13 -48 -26 -62 -27 l-24 -3 -2 1005 c-1 553 -2 1007 -3 1010 -1 7 -2091 7
-2091 0z"/>
</g>
</svg>
